<svg width="46" height="46" viewBox="0 0 46 46" fill="none" xmlns="http://www.w3.org/2000/svg">
<g id="Group">
<path id="Vector" d="M17.5057 30.7243C16.5398 30.7243 15.7539 29.9385 15.7539 28.9726C15.7539 28.0067 16.5398 27.2208 17.5057 27.2208C18.4716 27.2208 19.2575 28.0067 19.2575 28.9726C19.2575 29.5184 19.6999 29.9609 20.2457 29.9609C20.7915 29.9609 21.234 29.5184 21.234 28.9726C21.234 27.2643 20.0786 25.8216 18.5086 25.3824V23.0913C18.5086 22.5455 18.0661 22.103 17.5203 22.103C16.9745 22.103 16.532 22.5455 16.532 23.0913V25.3741C14.947 25.8035 13.7773 27.2537 13.7773 28.9727C13.7773 31.0285 15.4499 32.701 17.5057 32.701C18.4716 32.701 19.2575 33.4869 19.2575 34.4528C19.2575 35.4187 18.4716 36.2045 17.5057 36.2045C16.5398 36.2045 15.7539 35.4187 15.7539 34.4528C15.7539 33.907 15.3114 33.4645 14.7656 33.4645C14.2198 33.4645 13.7773 33.907 13.7773 34.4528C13.7773 36.1718 14.947 37.6219 16.532 38.0513V39.5315C16.532 40.0773 16.9745 40.5198 17.5203 40.5198C18.0661 40.5198 18.5086 40.0773 18.5086 39.5315V38.0429C20.0786 37.6037 21.234 36.1611 21.234 34.4528C21.234 32.3969 19.5615 30.7243 17.5057 30.7243Z" fill="white"/>
<path id="Vector_2" d="M46 31.3115C46 30.229 45.5359 29.2532 44.7966 28.5715C45.5359 27.8897 46 26.914 46 25.8314C46 23.7756 44.3275 22.1031 42.2717 22.1031H31.2202C31.0306 22.1031 30.8443 22.1176 30.6623 22.145C29.1782 20.3078 27.4048 18.7968 25.4401 17.6866C26.2284 17.0024 26.7283 15.9944 26.7283 14.8712C26.7283 13.2676 25.7105 11.8973 24.287 11.372L26.6796 4.0347C26.7281 3.88634 26.7406 3.72863 26.7164 3.57446C26.6921 3.4203 26.6316 3.27408 26.54 3.14778C26.4483 3.02148 26.328 2.91868 26.189 2.84781C26.05 2.77694 25.8961 2.74002 25.7401 2.74005H21.1143C20.68 1.16249 19.2335 0 17.5199 0C15.8061 0 14.3586 1.1624 13.9244 2.74005H9.29973C9.14368 2.74006 8.98985 2.77701 8.85083 2.84789C8.71181 2.91877 8.59155 3.02156 8.4999 3.14786C8.40824 3.27415 8.34779 3.42035 8.3235 3.57449C8.29921 3.72864 8.31177 3.88634 8.36014 4.0347L10.7527 11.372C9.3292 11.8972 8.31145 13.2675 8.31145 14.8712C8.31145 15.995 8.81188 17.0034 9.60079 17.6875C7.14473 19.0772 4.95659 21.1012 3.3014 23.5432C1.17246 26.684 0 30.4159 0 34.0515C0 38.613 1.81098 41.8955 5.38272 43.8078C8.17623 45.3034 12.033 46 17.5199 46C22.1422 46 25.5729 45.5082 28.2046 44.4604C28.8831 45.3925 29.9818 46 31.2202 46H42.2717C44.3275 46 46 44.3275 46 42.2717C46 41.1891 45.5359 40.2133 44.7966 39.5316C45.5359 38.8499 46 37.8741 46 36.7916C46 35.7091 45.5359 34.7332 44.7967 34.0515C45.5359 33.3698 46 32.394 46 31.3115ZM44.0234 25.8314C44.0234 26.7973 43.2376 27.5832 42.2717 27.5832H31.2202C30.2543 27.5832 29.4684 26.7973 29.4684 25.8314C29.4684 24.8655 30.2543 24.0797 31.2202 24.0797H42.2717C43.2376 24.0797 44.0234 24.8655 44.0234 25.8314ZM14.7798 4.71662C15.3256 4.71662 15.7681 4.27414 15.7681 3.72834C15.7681 2.76243 16.554 1.97656 17.5199 1.97656C18.4858 1.97656 19.2717 2.76243 19.2717 3.72834V6.46839C19.2717 7.01419 19.7141 7.45667 20.2599 7.45667C20.8057 7.45667 21.2482 7.01419 21.2482 6.46839V4.71662H24.3783L22.2828 11.1428H12.757L10.6616 4.71662H14.7798ZM12.0367 13.1195L12.0395 13.1196L12.0463 13.1193H22.9934L23.0001 13.1196L23.0029 13.1195C23.9674 13.1211 24.7517 13.9063 24.7517 14.8711C24.7517 15.8365 23.9666 16.622 23.0014 16.6228C22.9907 16.6228 22.9799 16.6225 22.9691 16.6229H12.0685C12.0595 16.6226 12.0504 16.6229 12.0413 16.6229H12.0398C11.0739 16.6229 10.2881 15.837 10.2881 14.8711C10.2881 13.9063 11.0723 13.1211 12.0367 13.1195ZM17.5199 44.0234C12.3711 44.0234 8.81089 43.4012 6.31566 42.0652C3.39591 40.502 1.97656 37.8806 1.97656 34.0515C1.97656 30.8072 3.02809 27.469 4.93745 24.652C6.78904 21.9203 9.37412 19.7775 12.2322 18.5995H22.8038C25.0678 19.5313 27.121 21.0383 28.8008 22.9982C28.0006 23.6825 27.4919 24.6984 27.4919 25.8314C27.4919 26.914 27.9561 27.8897 28.6953 28.5715C27.9561 29.2532 27.4919 30.229 27.4919 31.3115C27.4919 32.394 27.9561 33.3698 28.6952 34.0515C27.956 34.7332 27.4919 35.709 27.4919 36.7916C27.4919 37.8741 27.9561 38.8499 28.6953 39.5316C27.8762 40.2755 27.3918 41.4393 27.5081 42.6109C25.1157 43.5726 21.911 44.0234 17.5199 44.0234ZM44.0234 42.2717C44.0234 43.2376 43.2376 44.0234 42.2717 44.0234H31.2202C30.2543 44.0234 29.4684 43.2376 29.4684 42.2717C29.4684 41.3058 30.2543 40.5199 31.2202 40.5199H42.2717C43.2376 40.5199 44.0234 41.3058 44.0234 42.2717ZM44.0234 36.7916C44.0234 37.7575 43.2376 38.5433 42.2717 38.5433H31.2202C30.2543 38.5433 29.4684 37.7575 29.4684 36.7916C29.4684 35.8256 30.2543 35.0398 31.2202 35.0398H42.2717C43.2376 35.0398 44.0234 35.8256 44.0234 36.7916ZM31.2202 33.0632C30.2543 33.0632 29.4684 32.2774 29.4684 31.3115C29.4684 30.3456 30.2543 29.5598 31.2202 29.5598H42.2717C43.2376 29.5598 44.0234 30.3456 44.0234 31.3115C44.0234 32.2774 43.2376 33.0632 42.2717 33.0632H31.2202Z" fill="white"/>
</g>
</svg>
