<svg xmlns="http://www.w3.org/2000/svg" width="40" height="40" viewBox="0 0 40 40" fill="none">
  <path d="M33.6775 29.4371C34.3492 28.5135 34.7132 27.4019 34.718 26.2599C34.7216 26.1856 34.7105 26.1113 34.6854 26.0412C34.6602 25.9711 34.6215 25.9067 34.5715 25.8516C34.5214 25.7965 34.461 25.7518 34.3937 25.72C34.3263 25.6883 34.2534 25.6701 34.1791 25.6666C34.0293 25.661 33.8833 25.7143 33.7724 25.815C33.6615 25.9158 33.5945 26.0559 33.5857 26.2055C33.5899 27.1106 33.3111 27.9944 32.7883 28.7332C31.6826 30.1296 29.5845 30.2004 29.1748 30.2004C29.0245 30.2004 28.8803 30.2602 28.774 30.3664C28.6678 30.4727 28.608 30.6169 28.608 30.7672C28.608 30.9175 28.6678 31.0616 28.774 31.1679C28.8803 31.2742 29.0245 31.3339 29.1748 31.3339C29.6758 31.3339 32.2471 31.2427 33.6775 29.4371ZM22.2663 22.2662C22.2663 22.1158 22.2066 21.9717 22.1003 21.8654C21.994 21.7591 21.8499 21.6994 21.6995 21.6994C21.5492 21.6994 21.4051 21.7591 21.2988 21.8654C21.1925 21.9717 21.1328 22.1158 21.1328 22.2662C21.1328 22.8674 21.3717 23.444 21.7968 23.8691C22.2219 24.2943 22.7985 24.5331 23.3998 24.5331V25.0998C23.3998 25.2501 23.4595 25.3943 23.5657 25.5006C23.672 25.6069 23.8162 25.6666 23.9665 25.6666C24.1168 25.6666 24.2609 25.6069 24.3672 25.5006C24.4735 25.3943 24.5332 25.2501 24.5332 25.0998V24.5331C25.1345 24.5331 25.7111 24.2943 26.1362 23.8691C26.5613 23.444 26.8002 22.8674 26.8002 22.2662C26.8002 21.6649 26.5613 21.0883 26.1362 20.6632C25.7111 20.2381 25.1345 19.9992 24.5332 19.9992V17.7323C24.8338 17.7323 25.1221 17.8517 25.3347 18.0643C25.5473 18.2768 25.6667 18.5651 25.6667 18.8657C25.6667 19.0161 25.7264 19.1602 25.8327 19.2665C25.939 19.3728 26.0831 19.4325 26.2334 19.4325C26.3837 19.4325 26.5279 19.3728 26.6342 19.2665C26.7405 19.1602 26.8002 19.0161 26.8002 18.8657C26.8002 18.2645 26.5613 17.6879 26.1362 17.2628C25.7111 16.8376 25.1345 16.5988 24.5332 16.5988V16.0321C24.5332 15.8818 24.4735 15.7376 24.3672 15.6313C24.2609 15.525 24.1168 15.4653 23.9665 15.4653C23.8162 15.4653 23.672 15.525 23.5657 15.6313C23.4595 15.7376 23.3998 15.8818 23.3998 16.0321V16.5988C22.7985 16.5988 22.2219 16.8376 21.7968 17.2628C21.3717 17.6879 21.1328 18.2645 21.1328 18.8657C21.1328 19.467 21.3717 20.0436 21.7968 20.4687C22.2219 20.8938 22.7985 21.1327 23.3998 21.1327V23.3996C23.0991 23.3996 22.8108 23.2802 22.5983 23.0676C22.3857 22.8551 22.2663 22.5668 22.2663 22.2662ZM22.2663 18.8657C22.2663 18.5651 22.3857 18.2768 22.5983 18.0643C22.8108 17.8517 23.0991 17.7323 23.3998 17.7323V19.9992C23.0991 19.9992 22.8108 19.8798 22.5983 19.6672C22.3857 19.4547 22.2663 19.1664 22.2663 18.8657ZM24.5332 21.1327C24.8338 21.1327 25.1221 21.2521 25.3347 21.4647C25.5473 21.6772 25.6667 21.9655 25.6667 22.2662C25.6667 22.5668 25.5473 22.8551 25.3347 23.0676C25.1221 23.2802 24.8338 23.3996 24.5332 23.3996V21.1327Z" fill="url(#paint0_linear_2963_50177)"/>
  <path d="M36.5303 22.1366C35.1339 16.2023 32.0293 12.7639 29.7873 10.9679C32.5989 11.1799 33.504 12.3496 33.5306 12.3848C33.6159 12.5066 33.7457 12.59 33.892 12.617C34.0383 12.6439 34.1893 12.6123 34.3125 12.5289C34.4356 12.4456 34.5211 12.3171 34.5504 12.1713C34.5797 12.0254 34.5505 11.874 34.4691 11.7495C34.4283 11.6883 33.6411 10.5639 31.3521 10.0493C31.6413 9.81148 31.8758 9.51403 32.0394 9.17726C32.2031 8.84048 32.292 8.47233 32.3002 8.09799C32.2633 7.48572 32.0338 6.90078 31.6446 6.4267C31.2554 5.95261 30.7264 5.61362 30.133 5.45814C30.1829 5.04895 30.2084 4.63637 30.209 4.22435C30.2087 4.03729 30.1621 3.85322 30.0733 3.68854C29.9846 3.52386 29.8565 3.3837 29.7005 3.28056C29.5444 3.17742 29.3652 3.11451 29.179 3.09743C28.9927 3.08035 28.8051 3.10965 28.6329 3.18269C28.3467 3.31248 28.0809 3.48306 27.844 3.68879C27.7063 3.83023 27.5415 3.94232 27.3593 4.0183C27.1772 4.09427 26.9815 4.13256 26.7842 4.13084C26.5871 4.13223 26.3918 4.09379 26.21 4.01782C26.0282 3.94186 25.8636 3.82994 25.7261 3.68879C25.2445 3.24397 24.6129 2.99695 23.9573 2.99695C23.3017 2.99695 22.6701 3.24397 22.1885 3.68879C22.0509 3.83053 21.8858 3.9428 21.7035 4.01879C21.5211 4.09479 21.3252 4.13291 21.1276 4.13084C20.9306 4.13248 20.7353 4.09415 20.5535 4.01817C20.3718 3.94219 20.2073 3.83014 20.0701 3.68879C19.8337 3.48316 19.5687 3.31288 19.2834 3.18326C19.1113 3.1107 18.924 3.08179 18.738 3.0991C18.552 3.11642 18.3732 3.17942 18.2175 3.2825C18.0617 3.38558 17.9339 3.52556 17.8453 3.68997C17.7567 3.85439 17.7101 4.03815 17.7096 4.22492C17.7096 5.63496 17.9884 8.15013 19.7538 9.839C18.826 10.4032 17.9595 11.0624 17.1684 11.8061V7.53125C17.1684 6.2391 15.3407 5.26431 12.9179 5.26431C10.4951 5.26431 8.66735 6.2391 8.66735 7.53125V13.2411C6.67981 13.4395 5.26694 14.3321 5.26694 15.4655V29.8805C3.89771 30.2483 3 30.9941 3 31.9009V34.7345C3 36.0267 4.82772 37.0015 7.25051 37.0015C9.41714 37.0015 11.1043 36.2211 11.437 35.1313C12.4153 35.6492 13.5117 35.9032 14.6181 35.868C17.0409 35.868 18.8686 34.8932 18.8686 33.6011V26.2335C18.8686 24.9414 17.0409 23.9666 14.6181 23.9666C14.3347 23.9666 14.0502 23.9807 13.768 24.0091V15.4655C13.768 14.2244 12.0808 13.2791 9.80082 13.206V9.10054C10.765 9.59059 11.8368 9.83049 12.9179 9.79819C13.9989 9.83049 15.0708 9.59059 16.0349 9.10054V12.9657C15.64 13.4064 15.2666 13.866 14.9162 14.3428C14.8346 14.4643 14.8032 14.6126 14.8284 14.7567C14.8537 14.9008 14.9337 15.0295 15.0517 15.116C15.1697 15.2024 15.3166 15.2399 15.4616 15.2206C15.6066 15.2012 15.7385 15.1265 15.8298 15.0122C16.1936 14.5191 16.5835 14.0464 16.9984 13.5953L17.0114 13.5806C18.0933 12.3782 19.3637 11.3601 20.7728 10.5661C21.0505 10.6999 21.3447 10.7979 21.6473 10.8569L20.1862 12.2204C20.0764 12.3231 20.0118 12.4652 20.0067 12.6155C20.0016 12.7658 20.0564 12.9119 20.159 13.0218C20.2617 13.1317 20.4038 13.1963 20.5541 13.2014C20.7044 13.2065 20.8505 13.1516 20.9604 13.049L23.2273 10.9345H23.4081V12.6347C23.4081 12.785 23.4678 12.9292 23.5741 13.0354C23.6804 13.1417 23.8246 13.2014 23.9749 13.2014C24.1252 13.2014 24.2693 13.1417 24.3756 13.0354C24.4819 12.9292 24.5416 12.785 24.5416 12.6347V10.9317H24.7224L26.9893 13.0462C27.0437 13.097 27.1076 13.1366 27.1773 13.1627C27.2471 13.1889 27.3212 13.201 27.3957 13.1985C27.4701 13.196 27.5433 13.1788 27.611 13.148C27.6788 13.1172 27.7399 13.0734 27.7907 13.0189C27.8415 12.9645 27.8811 12.9007 27.9073 12.8309C27.9334 12.7612 27.9456 12.687 27.9431 12.6126C27.9405 12.5382 27.9234 12.465 27.8926 12.3973C27.8618 12.3295 27.8179 12.2684 27.7635 12.2176L26.2928 10.8484C26.5938 10.7888 26.8858 10.6907 27.1616 10.5565C28.6595 11.3669 33.5833 14.569 35.4275 22.3962C36.2294 25.8034 35.9403 28.4098 34.5689 30.1412C32.8142 32.3543 29.7697 32.4676 29.1775 32.4676H21.1355C20.9852 32.4676 20.8411 32.5273 20.7348 32.6336C20.6285 32.7399 20.5688 32.884 20.5688 33.0343C20.5688 33.1846 20.6285 33.3288 20.7348 33.4351C20.8411 33.5414 20.9852 33.6011 21.1355 33.6011H29.1775C30.1409 33.6011 33.4308 33.4021 35.4569 30.845C37.054 28.828 37.4156 25.898 36.5303 22.1366ZM7.25051 30.7674C9.12471 30.7674 10.3676 31.4475 10.3676 31.9009C10.3676 32.3543 9.12471 33.0343 7.25051 33.0343C5.37632 33.0343 4.13347 32.3543 4.13347 31.9009C4.13347 31.4475 5.37632 30.7674 7.25051 30.7674ZM7.25051 35.868C5.37632 35.868 4.13347 35.1879 4.13347 34.7345V33.4702C5.09762 33.9602 6.16946 34.2001 7.25051 34.1678C8.33157 34.2001 9.40341 33.9602 10.3676 33.4702V34.7345C10.3676 35.1879 9.12471 35.868 7.25051 35.868ZM14.6181 34.7345C12.7439 34.7345 11.501 34.0545 11.501 33.6011V27.8028C12.4652 28.2929 13.537 28.5328 14.6181 28.5005C15.6991 28.5328 16.771 28.2929 17.7351 27.8028V33.6011C17.7351 34.0545 16.4923 34.7345 14.6181 34.7345ZM17.7351 26.2335C17.7351 26.6869 16.4923 27.367 14.6181 27.367C12.7439 27.367 11.501 26.6869 11.501 26.2335C11.501 25.7801 12.7439 25.1 14.6181 25.1C16.4923 25.1 17.7351 25.7801 17.7351 26.2335ZM10.3676 26.2335V30.3316C9.40341 29.8415 8.33157 29.6016 7.25051 29.6339C6.96715 29.6339 6.68265 29.6481 6.40041 29.6764V17.0348C7.36456 17.5249 8.4364 17.7648 9.51746 17.7325C10.5985 17.7648 11.6704 17.5249 12.6345 17.0348V24.2131C11.2653 24.5809 10.3676 25.3267 10.3676 26.2335ZM12.6345 15.4655C12.6345 15.9189 11.3916 16.599 9.51746 16.599C7.64326 16.599 6.40041 15.9189 6.40041 15.4655C6.40041 15.0122 7.64326 14.3321 9.51746 14.3321C11.3916 14.3321 12.6345 15.0122 12.6345 15.4655ZM12.9179 8.66472C11.0437 8.66472 9.80082 7.98464 9.80082 7.53125C9.80082 7.07786 11.0437 6.39778 12.9179 6.39778C14.7921 6.39778 16.0349 7.07786 16.0349 7.53125C16.0349 7.98464 14.7921 8.66472 12.9179 8.66472ZM31.1667 8.09799C31.1667 9.02687 30.1608 9.78913 28.8998 9.79819C28.6889 9.79686 28.4787 9.77273 28.273 9.72622C29.0955 8.84866 29.6673 7.76627 29.9284 6.59217C30.2618 6.69041 30.5581 6.88644 30.7788 7.1549C30.9996 7.42336 31.1347 7.75189 31.1667 8.09799ZM19.3605 4.57289C19.8391 5.02137 20.4717 5.26889 21.1276 5.26431C21.7839 5.26924 22.4169 5.02169 22.8958 4.57289C23.0345 4.43287 23.1996 4.32171 23.3815 4.24585C23.5634 4.16999 23.7585 4.13094 23.9556 4.13094C24.1527 4.13094 24.3478 4.16999 24.5297 4.24585C24.7116 4.32171 24.8767 4.43287 25.0154 4.57289C25.4943 5.02203 26.1277 5.26962 26.7842 5.26431C27.4407 5.26938 28.0739 5.02183 28.553 4.57289C28.7099 4.43404 28.8845 4.31673 29.0727 4.22379C29.0727 5.27621 28.8771 7.87809 27.0511 9.30457C26.6403 9.6131 26.1423 9.78353 25.6286 9.79139C26.1192 8.94872 26.5075 8.05052 26.7853 7.11584C26.8256 6.97094 26.8067 6.81598 26.7327 6.68503C26.6587 6.55409 26.5358 6.4579 26.3909 6.41762C26.246 6.37734 26.091 6.39626 25.9601 6.47024C25.8291 6.54421 25.7329 6.66717 25.6926 6.81207C25.3788 7.87739 24.8962 8.88555 24.2633 9.79819H23.6807C23.0491 8.88474 22.5665 7.87683 22.2509 6.81207C22.2105 6.66724 22.1143 6.54439 21.9833 6.47052C21.8524 6.39665 21.6975 6.37783 21.5526 6.41818C21.4078 6.45854 21.285 6.55478 21.2111 6.68572C21.1372 6.81666 21.1184 6.97158 21.1588 7.1164C21.4368 8.05189 21.8255 8.95086 22.3166 9.79423C21.7926 9.79154 21.2834 9.62003 20.8646 9.30513C19.0386 7.87923 18.8431 5.27735 18.8431 4.22832C19.0307 4.31843 19.2052 4.43404 19.3605 4.57289Z" fill="url(#paint1_linear_2963_50177)"/>
  <path d="M33.6788 29.4375C34.3505 28.5139 34.7145 27.4024 34.7193 26.2604C34.7229 26.186 34.7118 26.1117 34.6867 26.0416C34.6615 25.9715 34.6228 25.9071 34.5728 25.852C34.5227 25.7969 34.4623 25.7522 34.395 25.7205C34.3277 25.6887 34.2547 25.6705 34.1804 25.667C34.0307 25.6617 33.8849 25.7151 33.7741 25.8158C33.6632 25.9165 33.5961 26.0565 33.587 26.206C33.5913 27.111 33.3125 27.9948 32.7896 28.7336C31.6839 30.13 29.5859 30.2009 29.1761 30.2009C29.0258 30.2009 28.8817 30.2606 28.7754 30.3669C28.6691 30.4731 28.6094 30.6173 28.6094 30.7676C28.6094 30.9179 28.6691 31.0621 28.7754 31.1683C28.8817 31.2746 29.0258 31.3343 29.1761 31.3343C29.6771 31.3343 32.2484 31.2431 33.6788 29.4375Z" fill="url(#paint2_linear_2963_50177)"/>
  <defs>
    <linearGradient id="paint0_linear_2963_50177" x1="27.9257" y1="15.4653" x2="27.9257" y2="31.3339" gradientUnits="userSpaceOnUse">
      <stop stop-color="white"/>
      <stop offset="1" stop-color="#D7B578"/>
    </linearGradient>
    <linearGradient id="paint1_linear_2963_50177" x1="20.0011" y1="2.99695" x2="20.0011" y2="37.0015" gradientUnits="userSpaceOnUse">
      <stop stop-color="white"/>
      <stop offset="1" stop-color="#D7B578"/>
    </linearGradient>
    <linearGradient id="paint2_linear_2963_50177" x1="31.6647" y1="25.6666" x2="31.6647" y2="31.3343" gradientUnits="userSpaceOnUse">
      <stop stop-color="white"/>
      <stop offset="1" stop-color="#D7B578"/>
    </linearGradient>
  </defs>
</svg>